<svg xmlns="http://www.w3.org/2000/svg" viewBox="0 0 640 640" role="img" aria-label="客来来商标候选 04">
  <defs>
    <linearGradient id="sealLine" x1="116" y1="104" x2="534" y2="536" gradientUnits="userSpaceOnUse">
      <stop offset="0" stop-color="#2563eb"/>
      <stop offset="0.52" stop-color="#0891b2"/>
      <stop offset="1" stop-color="#10b981"/>
    </linearGradient>
  </defs>
  <circle cx="320" cy="320" r="246" fill="#ffffff" stroke="url(#sealLine)" stroke-width="28"/>
  <circle cx="320" cy="320" r="188" fill="#f8fafc" stroke="#cbd5e1" stroke-width="4" stroke-dasharray="12 14"/>
  <path d="M232 142h176c24 0 44 20 44 44v12c0 24-20 44-44 44h-58l-50 38v-38h-68c-24 0-44-20-44-44v-12c0-24 20-44 44-44z" fill="#2563eb" opacity="0.95"/>
  <circle cx="276" cy="194" r="9" fill="#ffffff"/>
  <circle cx="320" cy="194" r="9" fill="#ffffff"/>
  <circle cx="364" cy="194" r="9" fill="#ffffff"/>
  <text x="320" y="368" text-anchor="middle" fill="#0f172a" font-family="PingFang SC, Hiragino Sans GB, Microsoft YaHei, Heiti SC, Arial Unicode MS, sans-serif" font-size="112" font-weight="900">客来来</text>
  <path d="M236 418c48 32 120 32 168 0" fill="none" stroke="#10b981" stroke-width="22" stroke-linecap="round"/>
  <text x="320" y="505" text-anchor="middle" fill="#475569" font-family="Inter, Arial, sans-serif" font-size="30" font-weight="800" letter-spacing="5">CRM · AI · GROWTH</text>
</svg>
