<svg xmlns="http://www.w3.org/2000/svg" viewBox="0 0 640 640" role="img" aria-label="客来来商标 v2 06 渠道汇聚">
  <rect width="640" height="640" fill="#ffffff"/>
  <circle cx="320" cy="320" r="62" fill="#0f172a"/>
  <circle cx="320" cy="320" r="170" fill="none" stroke="#e0f2fe" stroke-width="38"/>
  <path d="M320 150v108M492 258l-92 46M478 424l-92-50M320 490V382M162 424l92-50M148 258l92 46" fill="none" stroke="#2563eb" stroke-width="30" stroke-linecap="round"/>
  <circle cx="320" cy="118" r="58" fill="#10b981"/>
  <circle cx="520" cy="236" r="58" fill="#0891b2"/>
  <circle cx="504" cy="462" r="58" fill="#f59e0b"/>
  <circle cx="320" cy="522" r="58" fill="#10b981"/>
  <circle cx="136" cy="462" r="58" fill="#0891b2"/>
  <circle cx="120" cy="236" r="58" fill="#f59e0b"/>
  <path d="M284 312h72c20 0 36 16 36 36s-16 36-36 36h-18l-38 34v-34h-16c-20 0-36-16-36-36s16-36 36-36z" fill="#ffffff"/>
</svg>
