<svg xmlns="http://www.w3.org/2000/svg" viewBox="0 0 512 512" role="img" aria-label="客来来图标 06 客源盒">
  <rect width="512" height="512" fill="#ffffff"/>
  <defs>
    <linearGradient id="boxBg" x1="88" y1="82" x2="426" y2="430" gradientUnits="userSpaceOnUse">
      <stop offset="0" stop-color="#2868f0"/>
      <stop offset="0.55" stop-color="#10b6d3"/>
      <stop offset="1" stop-color="#12b981"/>
    </linearGradient>
  </defs>
  <rect x="64" y="64" width="384" height="384" rx="96" fill="#f2fbff"/>
  <path d="M128 300h86l30 52h24l30-52h86v74c0 34-28 62-62 62H190c-34 0-62-28-62-62z" fill="url(#boxBg)"/>
  <path d="M160 260c58-72 126-110 204-114" fill="none" stroke="#2868f0" stroke-width="34" stroke-linecap="round"/>
  <path d="M176 292c58 30 122 38 192 22" fill="none" stroke="#ffb020" stroke-width="30" stroke-linecap="round"/>
  <path d="M256 116l18 44 46 16-46 16-18 44-18-44-46-16 46-16z" fill="#12b981"/>
</svg>
